<?xml version="1.0" standalone="no"?>
<!DOCTYPE svg PUBLIC "-//W3C//DTD SVG 20010904//EN"
 "http://www.w3.org/TR/2001/REC-SVG-20010904/DTD/svg10.dtd">
<svg version="1.0" xmlns="http://www.w3.org/2000/svg"
 width="735.000000pt" height="735.000000pt" viewBox="0 0 735.000000 735.000000"
 preserveAspectRatio="xMidYMid meet">
<metadata>
Created by potrace 1.11, written by Peter Selinger 2001-2013
</metadata>
<g transform="translate(0.000000,735.000000) scale(0.100000,-0.100000)"
fill="#000000" stroke="none">
<path d="M3580 7306 c0 -16 -30 -22 -44 -8 -4 4 -23 7 -42 7 -19 0 -34 -3 -34
-7 0 -5 -7 -8 -15 -8 -8 0 -15 4 -15 9 0 13 -54 0 -67 -16 -7 -9 -19 -13 -29
-9 -10 4 -25 0 -35 -10 -10 -9 -25 -14 -33 -11 -8 3 -19 0 -25 -7 -7 -8 -34
-14 -65 -15 -29 0 -66 -8 -82 -16 -16 -8 -39 -15 -51 -15 -13 0 -23 -6 -23
-14 0 -10 -17 -14 -62 -15 -78 -2 -95 -7 -101 -31 -6 -22 -42 -27 -50 -7 -4 8
-6 6 -6 -4 -1 -12 -11 -16 -44 -15 -29 1 -49 -5 -61 -16 -10 -10 -23 -18 -31
-18 -7 0 -15 -5 -17 -11 -2 -5 -22 -13 -46 -16 -25 -3 -42 -11 -42 -19 0 -7
-16 -16 -35 -20 -19 -3 -35 -10 -35 -15 0 -5 -7 -9 -15 -9 -8 0 -15 -5 -15
-10 0 -6 -6 -10 -12 -8 -7 1 -23 -3 -35 -10 -13 -7 -23 -10 -23 -6 0 3 -15 -8
-32 -25 -18 -18 -43 -34 -55 -37 -13 -4 -20 -10 -17 -15 3 -5 -4 -9 -14 -9
-11 0 -23 -7 -26 -16 -4 -10 -14 -14 -25 -11 -13 3 -22 -3 -30 -20 -7 -15 -18
-23 -29 -21 -17 4 -72 -43 -72 -61 0 -5 -13 -14 -30 -21 -16 -7 -30 -16 -30
-20 0 -4 -11 -11 -25 -14 -31 -8 -65 -36 -65 -53 0 -8 -10 -18 -22 -23 -37
-15 -58 -36 -58 -57 0 -12 -8 -23 -21 -26 -11 -3 -23 -15 -26 -26 -3 -12 -14
-21 -24 -21 -11 0 -19 -7 -19 -16 0 -15 -52 -74 -65 -74 -15 0 -32 -26 -27
-42 3 -12 -1 -18 -12 -18 -9 0 -21 -11 -26 -25 -5 -14 -14 -25 -19 -25 -5 0
-16 -16 -26 -36 -9 -19 -23 -38 -31 -41 -8 -3 -14 -16 -14 -29 0 -16 -8 -28
-23 -35 -21 -10 -57 -78 -57 -110 0 -9 -9 -24 -20 -34 -11 -10 -20 -28 -20
-40 0 -13 -7 -28 -15 -35 -8 -7 -15 -18 -15 -25 0 -7 -7 -26 -15 -41 -8 -16
-12 -37 -9 -46 3 -10 1 -18 -3 -18 -5 0 -10 -18 -11 -40 -2 -23 -6 -51 -11
-63 -4 -12 -7 -38 -6 -57 0 -19 -3 -46 -8 -60 -5 -14 -10 -80 -12 -147 -2 -80
-7 -128 -15 -138 -10 -12 -10 -15 3 -15 9 0 14 -7 12 -17 -2 -10 -4 -18 -5
-18 -1 0 -4 -45 -6 -100 -2 -55 -5 -121 -7 -148 -1 -26 1 -48 5 -50 4 -1 3
-20 -3 -42 -5 -22 -11 -45 -12 -52 -2 -7 -6 -15 -10 -19 -3 -4 -2 -15 3 -24 5
-10 7 -53 4 -96 -9 -148 -1 -454 13 -477 2 -4 6 -29 8 -55 3 -26 6 -62 9 -80
5 -38 4 -39 -74 -46 -54 -4 -135 -37 -123 -50 4 -3 -1 -6 -11 -6 -9 0 -14 -4
-11 -10 3 -6 -1 -10 -10 -10 -9 0 -13 -4 -10 -10 3 -5 1 -10 -4 -10 -6 0 -11
-7 -11 -15 0 -8 -4 -15 -8 -15 -8 0 -52 -89 -56 -113 -1 -6 -5 -18 -10 -25 -4
-7 -9 -30 -11 -50 -2 -20 -7 -55 -11 -77 -16 -86 -1 -233 27 -271 5 -6 6 -14
2 -17 -3 -4 -1 -7 6 -7 7 0 10 -4 6 -9 -3 -5 -1 -12 5 -16 5 -3 10 -17 10 -31
0 -13 5 -24 12 -24 6 0 9 -3 6 -6 -6 -6 58 -162 73 -179 5 -5 9 -17 9 -27 0
-10 4 -18 8 -18 4 0 14 -16 21 -35 7 -19 17 -35 22 -35 5 0 8 -4 6 -9 -2 -8
59 -118 73 -131 3 -3 11 -17 19 -32 8 -15 22 -36 31 -46 10 -10 21 -28 24 -40
4 -12 12 -20 17 -17 5 4 9 1 9 -4 0 -6 9 -20 20 -31 11 -11 18 -20 15 -20 -3
0 9 -15 27 -34 18 -19 59 -61 91 -95 31 -33 57 -58 57 -55 0 2 15 -11 34 -30
19 -19 37 -31 40 -28 3 3 6 0 6 -6 0 -6 25 -23 55 -38 30 -16 54 -33 53 -39
-1 -5 3 -19 9 -31 7 -11 14 -33 17 -47 2 -15 8 -32 13 -39 8 -13 13 -33 15
-55 1 -7 5 -13 9 -13 3 0 9 -10 12 -23 3 -12 11 -40 17 -62 6 -22 13 -53 16
-70 3 -16 11 -36 16 -42 6 -7 8 -13 5 -13 -3 0 -1 -15 5 -32 5 -18 12 -51 14
-73 3 -22 10 -54 15 -71 5 -17 11 -46 14 -63 2 -18 6 -44 9 -59 6 -29 16 -113
21 -177 12 -148 16 -193 20 -215 3 -14 7 -43 11 -65 12 -84 15 -99 30 -124 15
-25 165 -138 228 -172 17 -9 83 -47 146 -84 63 -37 243 -133 400 -213 171 -87
337 -180 416 -233 71 -48 152 -96 180 -107 167 -70 299 -114 449 -150 370 -89
289 -81 778 -77 245 2 444 8 450 13 7 5 35 22 62 37 119 65 175 100 175 107 0
5 -11 14 -25 20 -31 14 -33 51 -3 72 12 8 25 13 30 10 4 -3 8 2 8 10 0 9 5 16
11 16 21 0 101 67 127 106 7 10 20 31 31 46 10 16 21 25 24 21 4 -3 7 6 7 21
0 14 7 43 15 63 8 19 15 46 15 59 0 13 4 24 8 24 4 0 9 11 10 24 3 41 46 145
121 292 39 77 71 146 71 152 0 7 4 12 10 12 5 0 9 3 8 8 -2 4 15 45 38 92 51
106 74 156 74 164 0 3 16 40 36 83 66 143 74 163 80 193 2 8 7 16 13 18 5 2 7
10 4 18 -3 8 -1 14 4 14 5 0 10 6 11 13 1 25 13 71 22 87 10 19 80 216 85 242
2 9 9 26 15 37 6 12 8 21 6 21 -5 0 16 63 52 160 3 8 6 20 7 25 3 9 40 112 52
145 4 8 7 18 8 23 2 4 3 8 5 10 1 1 3 9 5 17 1 8 8 35 16 60 7 25 13 50 15 55
2 11 22 87 32 120 3 11 5 90 5 175 -1 145 -25 365 -53 470 -15 59 -33 200 -37
290 -13 348 -13 365 1 375 13 10 21 39 16 60 -1 6 -3 15 -4 20 -1 6 -16 40
-34 77 -32 66 -32 68 -21 140 23 142 14 545 -15 683 -7 33 -14 88 -15 122 -1
34 -11 86 -22 115 -18 48 -38 121 -44 158 -1 8 -4 22 -7 30 -3 8 -11 33 -17
55 -13 42 -62 147 -72 155 -3 3 -9 23 -13 45 -4 22 -21 64 -37 94 -16 30 -29
59 -29 63 0 5 -12 26 -27 45 -16 20 -26 38 -23 39 3 2 -2 12 -10 22 -21 26
-39 54 -49 77 -5 12 -16 27 -25 34 -9 7 -16 19 -16 26 0 7 -11 24 -25 39 -14
15 -25 33 -25 40 0 7 -11 23 -25 36 -14 13 -25 28 -25 33 0 4 -18 26 -40 47
-22 21 -40 45 -40 54 0 9 -11 23 -25 32 -14 9 -25 20 -25 26 0 5 -9 19 -21 31
-11 12 -18 30 -15 39 2 11 -1 18 -10 18 -8 0 -18 10 -23 23 -10 23 -45 57 -60
57 -5 0 -15 16 -21 35 -6 19 -16 33 -21 30 -13 -9 -56 23 -62 46 -3 12 -11 17
-21 13 -11 -4 -16 -1 -16 11 0 9 -9 19 -20 22 -11 3 -20 10 -20 17 0 13 -59
42 -79 37 -9 -1 -12 3 -8 14 5 11 -1 19 -17 25 -13 5 -25 13 -27 18 -2 6 -13
12 -24 14 -11 1 -29 13 -41 24 -17 18 -53 37 -74 39 -3 0 -16 10 -30 23 -13
12 -34 22 -47 22 -13 0 -23 4 -23 10 0 14 -55 40 -84 40 -14 0 -28 5 -31 10
-3 6 -17 10 -31 10 -13 0 -23 3 -23 8 4 21 -4 27 -32 29 -18 1 -39 8 -48 16
-23 18 -62 36 -91 41 -48 8 -140 37 -140 45 0 4 -25 13 -55 20 -30 7 -55 16
-55 21 0 5 -7 7 -16 3 -10 -4 -22 1 -30 12 -10 13 -21 16 -43 12 -17 -4 -31
-2 -33 5 -2 6 -21 11 -41 12 -21 0 -42 7 -46 15 -9 13 -50 22 -98 22 -13 -1
-23 3 -23 8 0 9 -80 6 -112 -4 -13 -5 -16 -2 -12 9 5 13 -6 15 -75 13 -54 -1
-81 -5 -81 -13 0 -16 -51 -14 -57 3 -4 10 -9 11 -19 2 -11 -9 -18 -8 -29 1
-12 10 -15 10 -15 -4z"/>
</g>
</svg>
